# xmcd
#
# Track frame offsets:
#	150
#	26248
#	47713
#	62342
#	85112
#	116475
#	129810
#	149528
#	159405
#	174575
#	188360
#	196190
#	207800
#	215505
#
# Disc length: 3073 seconds
#
# Revision: 0
# Processed by: cddbd v1.4PL0 Copyright (c) Steve Scherf et al.
# Submitted via: EasyCDDAExtractor 4.5.0.2
#
DISCID=b80bff0e
DTITLE=Various Artist - The Gospel Ship
DYEAR=1994
DGENRE=Gospel
TTITLE0=Guide Me, O Thou Great Jehovah
TTITLE1=Testimony On Pioneeer Religion - Amazing Grace
TTITLE2=Poor Pilgrim Of Sorrow
TTITLE3=Testimony - Why Must I Wear This Shroud ?
TTITLE4=Testimony - When Jessus Christ Was Here On Earth
TTITLE5=The Old Gospel Ship
TTITLE6=When The Stars Begin To Fall
TTITLE7=Hicks's Farewell
TTITLE8=See That My Grave Is Kept Clean
TTITLE9=I Am A Poor Wayfaring Stranger
TTITLE10=The Little Familly
TTITLE11=Jim And Me ( Garner Brothers )
TTITLE12=The Airplane Ride ( Nell Hampton )
TTITLE13=My Lord Keeps A Record
EXTD=
EXTT0=
EXTT1=
EXTT2=
EXTT3=
EXTT4=
EXTT5=
EXTT6=
EXTT7=
EXTT8=
EXTT9=
EXTT10=
EXTT11=
EXTT12=
EXTT13=
PLAYORDER=
